<?xml version="1.0" encoding="utf-8"?>
<!-- Generator: Adobe Illustrator 24.3.0, SVG Export Plug-In . SVG Version: 6.00 Build 0)  -->
<svg version="1.1" id="Layer_1" xmlns="http://www.w3.org/2000/svg" xmlns:xlink="http://www.w3.org/1999/xlink" x="0px" y="0px"
	 viewBox="0 0 300 300" enable-background="new 0 0 300 300" xml:space="preserve">
<g>
	<g>
		<g>
			<path fill="#E5E5E4" d="M150,104.148c29.163,0,54.159,17.816,64.732,43.155V82.571H92.569l-9.313,70.232
				C92.327,124.588,118.772,104.148,150,104.148z"/>
		</g>
		<g>
			<path fill="#E5E5E4" d="M150,244.401c-33.146,0-60.845-23.026-68.146-53.944h-3.593l-9.177,69.173v6.453
				c0,5.906,5.415,10.684,11.316,10.684h134.332v-75.521C204.16,226.585,179.164,244.401,150,244.401z"/>
		</g>
		<g>
			<path fill="#EFEFEF" d="M103.358,82.571H92.569l-9.313,70.232c2.966-9.229,7.822-17.605,14.065-24.728L103.358,82.571z"/>
		</g>
		<g>
			<path fill="#EFEFEF" d="M79.874,266.084v-6.453l7.243-54.607c-2.25-4.604-4.057-9.461-5.263-14.566h-3.593l-9.177,69.173v6.453
				c0,5.906,5.415,10.684,11.316,10.684h10.789C85.289,276.767,79.874,271.99,79.874,266.084z"/>
		</g>
		<g>
			<circle fill="#FFDA88" cx="150" cy="174.275" r="70.127"/>
		</g>
		<g>
			<path fill="#FFE2A9" d="M90.662,174.275c0-36.902,28.536-67.092,64.732-69.853c-1.786-0.137-3.572-0.274-5.394-0.274
				c-38.724,0-70.127,31.402-70.127,70.127s31.402,70.127,70.127,70.127c1.823,0,3.608-0.137,5.394-0.274
				C119.199,241.367,90.662,211.176,90.662,174.275z"/>
		</g>
		<g>
			<polygon fill="#FF88A2" points="101.451,163.486 117.634,136.514 133.817,163.486 			"/>
		</g>
		<g>
			<polygon fill="#FF88A2" points="133.817,163.486 150,136.514 166.184,163.486 			"/>
		</g>
		<g>
			<polygon fill="#FF88A2" points="166.184,163.486 182.367,136.514 198.55,163.486 			"/>
		</g>
		<g>
			<polygon fill="#FE6F80" points="182.367,136.514 166.184,163.486 150,136.514 			"/>
		</g>
		<g>
			<polygon fill="#FE6F80" points="150,136.514 133.817,163.486 117.634,136.514 			"/>
		</g>
		<g>
			<polygon fill="#F95D7F" points="133.817,163.486 150,222.824 101.451,163.486 			"/>
		</g>
		<g>
			<polygon fill="#F95D7F" points="198.55,163.486 150,222.824 166.184,163.486 			"/>
		</g>
		<g>
			<polygon fill="#FE6F80" points="133.817,163.486 150,222.824 166.184,163.486 			"/>
		</g>
		<g>
			<path fill="#E5E5E4" d="M123.029,82.571V57.5c0-15.919,12.954-28.873,28.879-28.873h1.581c15.925,0,28.879,12.954,28.879,28.873
				v25.07h10.789V57.5c0-21.867-17.795-39.662-39.667-39.662h-1.581c-21.872,0-39.667,17.795-39.667,39.662v25.07H123.029z"/>
		</g>
		<g>
			<g>
				<path fill="#EFEFEF" d="M155.395,17.936c-0.638-0.032-1.264-0.098-1.907-0.098h-1.581c-21.872,0-39.667,17.795-39.667,39.662
					v25.07h5.394V57.5C117.634,36.276,134.413,18.939,155.395,17.936z"/>
			</g>
			<g>
				<path fill="#EFEFEF" d="M158.882,28.627h-1.581c-0.653,0-1.264,0.147-1.907,0.195c15.024,1.001,26.972,13.413,26.972,28.679
					v25.07h5.394V57.5C187.761,41.581,174.807,28.627,158.882,28.627z"/>
			</g>
		</g>
		<g>
			<polygon fill="#FE6F80" points="63.691,206.641 20.536,206.641 31.325,190.458 20.536,174.275 52.902,174.275 52.902,190.458 
				63.691,190.458 			"/>
		</g>
		<g>
			<polygon fill="#FFA1AA" points="31.325,174.275 20.536,174.275 31.325,190.458 20.536,206.641 31.325,206.641 42.113,190.458 			
				"/>
		</g>
		<g>
			<path fill="#9AE8CE" d="M226.238,158.092l-11.505-75.521v64.732c1.443,3.456,2.55,7.08,3.429,10.789H226.238z"/>
		</g>
		<g>
			<path fill="#9AE8CE" d="M218.162,190.458c-0.879,3.709-1.986,7.333-3.429,10.789v75.521h15.656c5.9,0,11.316-4.778,11.316-10.684
				v-6.453l-10.536-69.173H218.162z"/>
		</g>
		<g>
			<polygon fill="#FE6F80" points="236.31,206.641 279.465,206.641 268.676,190.458 279.465,174.275 247.099,174.275 
				247.099,190.458 236.31,190.458 			"/>
		</g>
		<g>
			<path fill="#FE6F80" d="M79.874,174.275c0-5.579,0.722-10.979,1.949-16.183H52.902v32.366h28.921
				C80.595,185.253,79.874,179.853,79.874,174.275z"/>
		</g>
		<g>
			<path fill="#FE6F80" d="M218.173,158.092c1.233,5.204,1.954,10.604,1.954,16.183c0,5.579-0.722,10.979-1.954,16.183h28.926
				v-32.366H218.173z"/>
		</g>
		<g>
			<path fill="#FFA1AA" d="M228.961,158.092h-10.789c1.233,5.204,1.954,10.604,1.954,16.183c0,5.579-0.722,10.979-1.954,16.183
				h10.789c1.233-5.204,1.954-10.604,1.954-16.183C230.916,168.696,230.194,163.296,228.961,158.092z"/>
		</g>
		<g>
			<path fill="#FFDA88" d="M85.268,60.993c0,2.981-2.413,5.394-5.394,5.394l0,0c-2.982,0-5.394-2.413-5.394-5.394v-5.394
				c0-2.982,2.413-5.394,5.394-5.394l0,0c2.981,0,5.394,2.413,5.394,5.394V60.993z"/>
		</g>
		<g>
			<path fill="#FFDA88" d="M69.085,77.176c0,2.982-2.413,5.394-5.394,5.394h-5.394c-2.981,0-5.394-2.413-5.394-5.394l0,0
				c0-2.981,2.413-5.394,5.394-5.394h5.394C66.672,71.782,69.085,74.195,69.085,77.176L69.085,77.176z"/>
		</g>
		<g>
			<path fill="#FFDA88" d="M220.127,60.993c0,2.981,2.413,5.394,5.394,5.394l0,0c2.981,0,5.394-2.413,5.394-5.394v-5.394
				c0-2.982-2.413-5.394-5.394-5.394l0,0c-2.982,0-5.394,2.413-5.394,5.394V60.993z"/>
		</g>
		<g>
			<path fill="#FFDA88" d="M236.31,77.176c0,2.982,2.413,5.394,5.394,5.394h5.394c2.982,0,5.394-2.413,5.394-5.394l0,0
				c0-2.981-2.413-5.394-5.394-5.394h-5.394C238.723,71.782,236.31,74.195,236.31,77.176L236.31,77.176z"/>
		</g>
		<g>
			<rect x="52.902" y="158.092" fill="#FFA1AA" width="10.789" height="32.366"/>
		</g>
		<g>
			<rect x="236.31" y="190.458" fill="#FFA1AA" width="10.789" height="16.183"/>
		</g>
	</g>
	<g>
		<g>
			<path fill="#161616" d="M123.029,82.571V57.5c0-15.919,12.954-28.873,28.879-28.873h1.581c15.925,0,28.879,12.954,28.879,28.873
				v25.07h10.789V57.5c0-21.867-17.795-39.662-39.667-39.662h-1.581c-21.872,0-39.667,17.795-39.667,39.662v25.07H123.029z"/>
		</g>
		<g>
			<path fill="#161616" d="M133.817,168.88h-32.366c-1.944,0-3.738-1.043-4.694-2.734c-0.959-1.696-0.933-3.772,0.068-5.437
				l16.183-26.972c1.949-3.25,7.301-3.245,9.251,0l16.183,26.972c1.001,1.665,1.027,3.74,0.069,5.437
				C137.552,167.837,135.761,168.88,133.817,168.88z M110.978,158.092h13.31l-6.653-11.094L110.978,158.092z"/>
		</g>
		<g>
			<path fill="#161616" d="M166.184,168.88h-32.366c-1.944,0-3.735-1.043-4.694-2.734c-0.959-1.696-0.932-3.772,0.069-5.437
				l16.183-26.972c1.949-3.245,7.301-3.245,9.251,0l16.183,26.972c1.001,1.665,1.027,3.74,0.068,5.437
				C169.919,167.837,168.127,168.88,166.184,168.88z M143.347,158.092h13.307L150,146.997L143.347,158.092z"/>
		</g>
		<g>
			<path fill="#161616" d="M198.55,168.88h-32.366c-1.944,0-3.735-1.043-4.694-2.734c-0.959-1.696-0.932-3.772,0.069-5.437
				l16.183-26.972c1.949-3.245,7.301-3.245,9.25,0l16.183,26.972c1.001,1.665,1.027,3.74,0.068,5.437
				C202.285,167.837,200.493,168.88,198.55,168.88z M175.713,158.092h13.307l-6.653-11.094L175.713,158.092z"/>
		</g>
		<g>
			<path fill="#161616" d="M166.184,168.88c-1.896,0-3.651-0.996-4.625-2.618l-16.183-26.972c-1.001-1.665-1.027-3.74-0.068-5.436
				c0.959-1.691,2.75-2.734,4.694-2.734h32.366c1.944,0,3.735,1.043,4.694,2.734c0.959,1.696,0.932,3.772-0.069,5.436
				l-16.183,26.972C169.834,167.885,168.08,168.88,166.184,168.88z M159.53,141.908l6.653,11.094l6.653-11.094H159.53z"/>
		</g>
		<g>
			<path fill="#161616" d="M133.817,168.88c-1.896,0-3.651-0.996-4.625-2.618l-16.183-26.972c-1.001-1.665-1.027-3.74-0.068-5.436
				c0.956-1.691,2.75-2.734,4.694-2.734H150c1.944,0,3.735,1.043,4.694,2.734c0.959,1.696,0.932,3.772-0.068,5.436l-16.183,26.972
				C137.468,167.885,135.714,168.88,133.817,168.88z M127.164,141.908l6.653,11.094l6.653-11.094H127.164z"/>
		</g>
		<g>
			<path fill="#161616" d="M150,228.218c-1.575,0-3.124-0.69-4.177-1.981L97.276,166.9c-1.32-1.612-1.594-3.84-0.701-5.726
				c0.893-1.881,2.792-3.082,4.876-3.082h32.366c2.434,0,4.562,1.628,5.205,3.977l16.183,59.338
				c0.669,2.455-0.469,5.047-2.734,6.211C151.686,228.023,150.838,228.218,150,228.218z M112.835,168.88l25.291,30.912
				l-8.429-30.912H112.835z"/>
		</g>
		<g>
			<path fill="#161616" d="M150,228.218c-0.843,0-1.686-0.195-2.471-0.6c-2.265-1.164-3.403-3.756-2.734-6.211l16.183-59.338
				c0.643-2.35,2.771-3.977,5.205-3.977h32.366c2.086,0,3.982,1.201,4.873,3.082c0.896,1.886,0.622,4.114-0.695,5.726
				l-48.549,59.338C153.124,227.528,151.576,228.218,150,228.218z M170.303,168.88l-8.429,30.912l25.291-30.912H170.303z"/>
		</g>
		<g>
			<path fill="#161616" d="M150,228.218c-2.434,0-4.562-1.628-5.205-3.977l-16.183-59.338c-0.442-1.617-0.105-3.356,0.917-4.694
				c1.022-1.333,2.608-2.118,4.288-2.118h32.366c1.68,0,3.266,0.785,4.288,2.118c1.022,1.338,1.359,3.077,0.917,4.694
				l-16.183,59.338C154.562,226.59,152.434,228.218,150,228.218z M140.882,168.88L150,202.321l9.119-33.441H140.882z"/>
		</g>
		<g>
			<path fill="#161616" d="M63.691,212.035H20.536c-1.989,0-3.817-1.096-4.757-2.85c-0.938-1.754-0.835-3.883,0.269-5.537
				l8.795-13.191l-8.795-13.191c-1.104-1.654-1.206-3.782-0.269-5.537c0.94-1.754,2.768-2.85,4.757-2.85h32.366
				c2.979,0,5.394,2.413,5.394,5.394v10.789h5.394c2.979,0,5.394,2.413,5.394,5.394v16.183
				C69.085,209.622,66.67,212.035,63.691,212.035z M30.616,201.246h27.68v-5.394h-5.394c-2.979,0-5.394-2.413-5.394-5.394v-10.789
				H30.616l5.197,7.796c1.209,1.812,1.209,4.172,0,5.984L30.616,201.246z"/>
		</g>
		<g>
			<path fill="#161616" d="M226.238,163.486h-8.076c-2.497,0-4.673-1.717-5.247-4.151c-0.885-3.725-1.917-6.98-3.161-9.951
				c-0.274-0.659-0.416-1.37-0.416-2.081V82.571c0-2.824,2.176-5.168,4.989-5.379c2.745-0.216,5.315,1.77,5.737,4.567l11.505,75.521
				c0.237,1.554-0.216,3.134-1.238,4.325C229.304,162.801,227.813,163.486,226.238,163.486z"/>
		</g>
		<g>
			<path fill="#161616" d="M230.389,282.162h-15.656c-2.982,0-5.394-2.413-5.394-5.394v-75.521c0-0.711,0.142-1.422,0.416-2.081
				c1.243-2.971,2.276-6.227,3.161-9.951c0.574-2.434,2.75-4.151,5.247-4.151h13.007c2.666,0,4.931,1.949,5.331,4.583l10.536,69.173
				c0.042,0.269,0.063,0.537,0.063,0.811v6.453C247.099,274.797,239.445,282.162,230.389,282.162z M220.127,271.373h10.262
				c3.098,0,5.921-2.523,5.921-5.289v-6.042l-9.777-64.19h-4.209c-0.659,2.276-1.385,4.415-2.197,6.448V271.373z"/>
		</g>
		<g>
			<path fill="#161616" d="M279.465,212.035H236.31c-2.982,0-5.394-2.413-5.394-5.394v-16.183c0-2.982,2.413-5.394,5.394-5.394
				h5.394v-10.789c0-2.982,2.413-5.394,5.394-5.394h32.366c1.991,0,3.819,1.096,4.757,2.85c0.938,1.754,0.832,3.882-0.269,5.537
				l-8.792,13.191l8.792,13.191c1.101,1.654,1.206,3.782,0.269,5.537C283.284,210.939,281.456,212.035,279.465,212.035z
				 M241.705,201.246h27.683l-5.199-7.796c-1.206-1.812-1.206-4.172,0-5.984l5.199-7.796h-16.894v10.789
				c0,2.982-2.413,5.394-5.394,5.394h-5.394V201.246z"/>
		</g>
		<g>
			<path fill="#161616" d="M81.826,195.852H52.902c-2.979,0-5.394-2.413-5.394-5.394v-32.366c0-2.982,2.415-5.394,5.394-5.394
				h28.924c1.649,0,3.208,0.753,4.23,2.049c1.025,1.291,1.399,2.982,1.019,4.588c-1.198,5.073-1.807,10.099-1.807,14.94
				c0,4.841,0.608,9.867,1.807,14.94c0.379,1.607,0.005,3.298-1.019,4.588C85.034,195.099,83.474,195.852,81.826,195.852z
				 M58.296,185.063h17c-0.543-3.64-0.816-7.254-0.816-10.789c0-3.535,0.274-7.149,0.816-10.789h-17V185.063z"/>
		</g>
		<g>
			<path fill="#161616" d="M247.099,195.852h-28.926c-1.649,0-3.208-0.753-4.23-2.049c-1.022-1.291-1.401-2.982-1.017-4.588
				c1.196-5.068,1.807-10.093,1.807-14.94c0-4.846-0.611-9.872-1.807-14.94c-0.385-1.607-0.005-3.298,1.017-4.588
				c1.022-1.296,2.581-2.049,4.23-2.049h28.926c2.982,0,5.394,2.413,5.394,5.394v32.366
				C252.493,193.439,250.081,195.852,247.099,195.852z M224.705,185.063h17v-21.577h-17c0.543,3.64,0.816,7.249,0.816,10.789
				C225.521,177.815,225.248,181.423,224.705,185.063z"/>
		</g>
		<g>
			<path fill="#161616" d="M85.268,60.993c0,2.981-2.416,5.394-5.394,5.394l0,0c-2.979,0-5.394-2.413-5.394-5.394v-5.394
				c0-2.982,2.416-5.394,5.394-5.394l0,0c2.979,0,5.394,2.413,5.394,5.394V60.993z"/>
		</g>
		<g>
			<path fill="#161616" d="M69.085,77.176c0,2.982-2.416,5.394-5.394,5.394h-5.394c-2.979,0-5.394-2.413-5.394-5.394l0,0
				c0-2.981,2.416-5.394,5.394-5.394h5.394C66.669,71.782,69.085,74.195,69.085,77.176L69.085,77.176z"/>
		</g>
		<g>
			<path fill="#161616" d="M220.127,60.993c0,2.981,2.413,5.394,5.394,5.394l0,0c2.981,0,5.394-2.413,5.394-5.394v-5.394
				c0-2.982-2.413-5.394-5.394-5.394l0,0c-2.982,0-5.394,2.413-5.394,5.394V60.993z"/>
		</g>
		<g>
			<path fill="#161616" d="M236.31,77.176c0,2.982,2.413,5.394,5.394,5.394h5.394c2.982,0,5.394-2.413,5.394-5.394l0,0
				c0-2.981-2.413-5.394-5.394-5.394h-5.394C238.723,71.782,236.31,74.195,236.31,77.176L236.31,77.176z"/>
		</g>
		<g>
			<path fill="#161616" d="M150,249.796c-41.643,0-75.521-33.878-75.521-75.521c0-24.322,11.879-47.306,31.776-61.492
				c2.434-1.728,5.795-1.164,7.525,1.264c1.728,2.423,1.164,5.795-1.262,7.523c-17.063,12.164-27.251,31.866-27.251,52.706
				c0,35.696,29.039,64.732,64.732,64.732c35.695,0,64.732-29.037,64.732-64.732S185.696,109.542,150,109.542
				c-6.685,0-13.312,1.033-19.702,3.071c-2.834,0.932-5.874-0.659-6.775-3.498c-0.906-2.834,0.659-5.868,3.498-6.775
				c7.449-2.381,15.182-3.587,22.979-3.587c41.643,0,75.521,33.878,75.521,75.521S191.643,249.796,150,249.796z"/>
		</g>
		<g>
			<g>
				<path fill="#161616" d="M83.258,158.197c-0.393,0-0.79-0.042-1.188-0.132c-2.723-0.611-4.53-3.203-4.162-5.974l9.314-70.232
					c0.356-2.681,2.642-4.683,5.347-4.683h122.163c2.982,0,5.394,2.413,5.394,5.394v64.732c0,2.571-1.812,4.783-4.336,5.289
					c-2.529,0.527-5.052-0.843-6.037-3.213c-10.099-24.201-33.551-39.836-59.754-39.836c-6.664,0-13.286,1.038-19.691,3.087
					c-2.861,0.901-5.874-0.659-6.78-3.493c-0.911-2.839,0.653-5.874,3.493-6.78c7.47-2.392,15.198-3.603,22.979-3.603
					c23.579,0,45.257,10.857,59.338,28.779V87.965H97.295l-5.052,38.108c4.204-4.941,9.077-9.43,14.492-13.296
					c2.434-1.728,5.795-1.164,7.525,1.259c1.73,2.428,1.167,5.795-1.256,7.528c-11.747,8.381-20.487,20.06-24.612,32.888
					C87.662,156.722,85.555,158.197,83.258,158.197z"/>
			</g>
		</g>
		<g>
			<path fill="#161616" d="M214.733,282.162H198.55c-2.982,0-5.394-2.413-5.394-5.394c0-2.982,2.413-5.394,5.394-5.394h10.789
				v-50.356c-14.081,17.921-35.759,28.779-59.338,28.779c-29.916,0-56.243-17.321-68.388-43.581l-7.133,53.775v6.095
				c0,2.766,2.821,5.289,5.921,5.289h96.572c2.982,0,5.394,2.413,5.394,5.394c0,2.982-2.413,5.394-5.394,5.394H80.4
				c-9.058,0-16.71-7.365-16.71-16.078v-6.453c0-0.237,0.016-0.474,0.047-0.711l9.177-69.173c0.356-2.681,2.642-4.683,5.347-4.683
				h3.595c2.502,0,4.675,1.723,5.249,4.156c6.922,29.316,32.782,49.787,62.894,49.787c26.203,0,49.656-15.635,59.754-39.836
				c0.985-2.37,3.508-3.751,6.037-3.213c2.523,0.506,4.336,2.718,4.336,5.289v75.521
				C220.127,279.749,217.714,282.162,214.733,282.162z"/>
		</g>
	</g>
</g>
</svg>
